<?xml version="1.0" encoding="UTF-8" standalone="no"?>
<!-- Svg Vector Icons : http://www.onlinewebfonts.com/icon -->

<svg
   xmlns:dc="http://purl.org/dc/elements/1.1/"
   xmlns:cc="http://creativecommons.org/ns#"
   xmlns:rdf="http://www.w3.org/1999/02/22-rdf-syntax-ns#"
   xmlns:svg="http://www.w3.org/2000/svg"
   xmlns="http://www.w3.org/2000/svg"
   xmlns:sodipodi="http://sodipodi.sourceforge.net/DTD/sodipodi-0.dtd"
   xmlns:inkscape="http://www.inkscape.org/namespaces/inkscape"
   version="1.1"
   x="0px"
   y="0px"
   viewBox="0 0 1000 1000"
   enable-background="new 0 0 1000 1000"
   xml:space="preserve"
   id="svg2"
   inkscape:version="0.91 r13725"
   sodipodi:docname="metronome.svg"><defs
     id="defs14" /><sodipodi:namedview
     pagecolor="#ffffff"
     bordercolor="#666666"
     borderopacity="1"
     objecttolerance="10"
     gridtolerance="10"
     guidetolerance="10"
     inkscape:pageopacity="0"
     inkscape:pageshadow="2"
     inkscape:window-width="698"
     inkscape:window-height="480"
     id="namedview12"
     showgrid="false"
     inkscape:zoom="0.236"
     inkscape:cx="500"
     inkscape:cy="500"
     inkscape:window-x="0"
     inkscape:window-y="30"
     inkscape:window-maximized="0"
     inkscape:current-layer="svg2" /><metadata
     id="metadata4"> Svg Vector Icons : http://www.onlinewebfonts.com/icon <rdf:RDF><cc:Work
     rdf:about=""><dc:format>image/svg+xml</dc:format><dc:type
       rdf:resource="http://purl.org/dc/dcmitype/StillImage" /></cc:Work></rdf:RDF></metadata><g
     id="g6"
     style="fill:#ffffff"><path
       d="M290,500c3.9,0,7.7-0.2,11.5-0.5L430,850h70L363.9,478.9C403.6,454.2,430,410.2,430,360c0-77.3-62.7-140-140-140s-140,62.7-140,140C150,437.3,212.7,500,290,500z"
       id="path8"
       style="fill:#ffffff" /><path
       d="M537,35.1C531.2,20.4,516.8,10,500,10c-16.8,0-31.2,10.4-37,25.1l-59.5,148.3c24,15.4,44.6,35.6,60.5,59.1l25.5-66.6c1.6-4.2,5.7-7.2,10.5-7.2c4.8,0,8.9,3,10.5,7.2L780,881.3H220L297.3,679l-40.9-111.7c-2.1-0.3-4.3-0.7-6.4-1.1L80,990h840L537,35.1z"
       id="path10"
       style="fill:#ffffff" /></g></svg>